<svg width="28" height="28" viewBox="0 0 28 28" fill="none" xmlns="http://www.w3.org/2000/svg">
<path d="M9.78 22.392C15.268 22.392 19.02 18.304 19.02 11.556C19.02 4.836 15.268 0.915999 9.78 0.915999C4.264 0.915999 0.512 4.808 0.512 11.556C0.512 18.304 4.264 22.392 9.78 22.392ZM9.78 19.004C6.672 19.004 4.74 16.232 4.74 11.556C4.74 7.132 6.672 4.472 9.78 4.472C12.86 4.472 14.82 7.132 14.82 11.556C14.82 16.232 12.86 19.004 9.78 19.004ZM16.472 27.628C17.984 27.628 19.216 27.376 19.972 27.012L19.216 23.96C18.6 24.184 17.844 24.324 16.92 24.324C14.848 24.324 12.72 23.484 11.936 21.468L7.736 21.888C9.052 25.192 12.076 27.628 16.472 27.628ZM25.0829 22.392C26.5389 22.392 27.6589 21.244 27.6589 19.704C27.6589 18.164 26.5389 17.044 25.0829 17.044C23.5989 17.044 22.5349 18.164 22.5349 19.704C22.5349 21.244 23.5989 22.392 25.0829 22.392Z" fill="#004098"/>
</svg>
