<svg width="28" height="28" viewBox="0 0 28 28" fill="none" xmlns="http://www.w3.org/2000/svg">
<path d="M16.4422 16.4423C15.3512 17.5333 13.9613 18.2763 12.4481 18.5773C10.9349 18.8783 9.36641 18.7237 7.94101 18.1333C6.51561 17.5429 5.29732 16.5431 4.44016 15.2603C3.583 13.9775 3.12549 12.4692 3.12549 10.9264C3.12549 9.38354 3.583 7.87537 4.44016 6.59254C5.29732 5.30972 6.51561 4.30985 7.94101 3.71943C9.36641 3.12901 10.9349 2.97455 12.4481 3.27555C13.9613 3.57655 15.3512 4.31948 16.4422 5.41044C17.1684 6.13374 17.7447 6.9934 18.1379 7.93996C18.5311 8.88653 18.7336 9.90139 18.7336 10.9264C18.7336 11.9514 18.5311 12.9663 18.1379 13.9129C17.7447 14.8594 17.1684 15.719 16.4422 16.4423V16.4423Z" stroke="black" stroke-width="2" stroke-miterlimit="10" stroke-linecap="round" stroke-linejoin="round"/>
<path d="M16.4424 16.4435L25.4377 25.2687" stroke="black" stroke-width="2" stroke-miterlimit="10" stroke-linecap="round" stroke-linejoin="round"/>
</svg>
