<svg width="27" height="22" viewBox="0 0 27 22" fill="none" xmlns="http://www.w3.org/2000/svg">
<path d="M0.888 21H5.088L8.056 10.22C8.672 8.064 9.26 5.684 9.82 3.444H9.932C10.52 5.656 11.108 8.064 11.724 10.22L14.692 21H19.032L12.396 0.28H7.524L0.888 21ZM5.004 15.68H14.86V12.488H5.004V15.68ZM23.4735 21.392C24.9295 21.392 26.0495 20.244 26.0495 18.704C26.0495 17.164 24.9295 16.044 23.4735 16.044C21.9895 16.044 20.9255 17.164 20.9255 18.704C20.9255 20.244 21.9895 21.392 23.4735 21.392Z" fill="#004098"/>
</svg>
