<svg width="175" height="56" viewBox="0 0 175 56" fill="none" xmlns="http://www.w3.org/2000/svg">
<path d="M76.6144 38.6073C76.553 36.938 76.0062 35.322 75.0401 33.9551C74.074 32.5883 72.7301 31.529 71.171 30.9056C69.6118 30.2822 67.9044 30.1213 66.2552 30.4425C64.606 30.7636 63.0858 31.553 61.8786 32.7151C60.3092 34.2286 59.3781 36.2791 59.2744 38.4502V47.4064H62.5267V38.9059C62.5267 37.4744 63.0987 36.1016 64.117 35.0894C65.1352 34.0773 66.5163 33.5086 67.9563 33.5086C69.3963 33.5086 70.7774 34.0773 71.7956 35.0894C72.8139 36.1016 73.3859 37.4744 73.3859 38.9059V47.4221H76.6421V38.6073H76.6144Z" fill="black"/>
<path d="M28.653 30.2757C26.4328 30.2677 24.2951 31.112 22.686 32.6326L17.3354 37.9553C17.121 36.0168 16.2534 34.2075 14.8736 32.8213C13.4937 31.4351 11.6828 30.5535 9.73513 30.3199C7.78747 30.0863 5.81758 30.5144 4.14565 31.5346C2.47373 32.5548 1.19807 34.1071 0.526026 35.9392C-0.146018 37.7713 -0.174933 39.7755 0.443978 41.626C1.06289 43.4765 2.29324 45.0645 3.93505 46.132C5.57685 47.1994 7.53358 47.6835 9.48718 47.5055C11.4408 47.3275 13.2764 46.4979 14.6957 45.1516L22.3264 37.5585L24.812 35.0838C25.8281 34.0691 27.2081 33.4971 28.6484 33.4938C30.0887 33.4905 31.4713 34.0561 32.4921 35.0661C33.5129 36.0762 34.0883 37.4479 34.0916 38.8796C34.0949 40.3113 33.526 41.6858 32.5099 42.7005H32.4901L32.4704 42.7201C31.4543 43.7211 30.0816 44.2828 28.6511 44.2828C27.2205 44.2828 25.8478 43.7211 24.8318 42.7201L23.1483 41.0467L23.0812 40.9878C22.7923 40.7225 22.4157 40.5716 22.0224 40.5636C21.6292 40.5557 21.2467 40.6912 20.9472 40.9446L20.7615 41.1253C20.5142 41.4112 20.3745 41.7736 20.3663 42.1505V55.3884H23.5988V45.9294C25.0725 46.9725 26.8361 47.5339 28.6451 47.536C30.8693 47.4204 32.9639 46.4608 34.4971 44.855C36.0303 43.2492 36.885 41.1198 36.885 38.9059C36.885 36.692 36.0303 34.5626 34.4971 32.9568C32.9639 31.351 30.8693 30.3913 28.6451 30.2757H28.653ZM8.70489 33.5086C9.7786 33.5094 10.828 33.8266 11.7204 34.4201C12.6127 35.0137 13.308 35.8569 13.7184 36.8432C14.1287 37.8294 14.2357 38.9145 14.0258 39.9613C13.8158 41.008 13.2984 41.9693 12.5389 42.7237C11.7794 43.4781 10.8119 43.9918 9.75876 44.1997C8.70562 44.4077 7.61411 44.3006 6.6222 43.8919C5.6303 43.4833 4.78254 42.7915 4.1861 41.904C3.58966 41.0165 3.27131 39.9732 3.27131 38.9059C3.27236 37.4741 3.84529 36.1013 4.86417 35.0892C5.88305 34.0771 7.2645 33.5086 8.70489 33.5086Z" fill="black"/>
<path d="M116.463 38.6073C116.397 36.662 115.672 34.796 114.405 33.3115C113.138 31.827 111.405 30.8111 109.485 30.4282C107.565 30.0452 105.571 30.3178 103.827 31.2017C102.082 32.0857 100.689 33.5292 99.8726 35.2984C99.0563 37.0677 98.8647 39.059 99.3289 40.95C99.7931 42.841 100.886 44.5208 102.43 45.7174C103.975 46.9139 105.88 47.5572 107.839 47.5429C109.797 47.5286 111.693 46.8577 113.219 45.6387V47.4221H116.463V38.6073ZM107.77 33.5007C108.844 33.5007 109.893 33.8173 110.786 34.4104C111.679 35.0034 112.375 35.8464 112.786 36.8326C113.197 37.8188 113.305 38.904 113.095 39.951C112.886 40.9979 112.368 41.9597 111.609 42.7145C110.85 43.4693 109.882 43.9833 108.829 44.1916C107.776 44.3999 106.684 44.293 105.692 43.8845C104.7 43.476 103.852 42.7842 103.255 41.8966C102.659 41.009 102.34 39.9655 102.34 38.898C102.343 37.4683 102.917 36.0981 103.934 35.0878C104.952 34.0775 106.331 33.5096 107.77 33.5086V33.5007Z" fill="black"/>
<path d="M152.681 32.1574C151.16 30.9505 149.276 30.2857 147.33 30.2695C145.384 30.2533 143.489 30.8865 141.948 32.0678C140.407 33.2492 139.309 34.9103 138.83 36.7852C138.351 38.6602 138.519 40.6407 139.307 42.4095C140.095 44.1783 141.457 45.6333 143.175 46.5415C144.893 47.4496 146.869 47.7585 148.784 47.4186C150.7 47.0787 152.446 46.1097 153.742 44.6668C155.038 43.2238 155.809 41.3903 155.933 39.4598H155.953V24.25H152.681V32.1574ZM152.681 39.3105C152.573 40.7061 151.925 42.006 150.874 42.9372C149.823 43.8685 148.45 44.3587 147.043 44.3051C145.636 44.2515 144.304 43.6581 143.328 42.6496C142.351 41.6411 141.806 40.2958 141.806 38.8961C141.806 37.4964 142.351 36.1511 143.328 35.1426C144.304 34.134 145.636 33.5407 147.043 33.4871C148.45 33.4335 149.823 33.9237 150.874 34.855C151.925 35.7862 152.573 37.0861 152.681 38.4817V39.3105Z" fill="black"/>
<path d="M96.871 38.6074C96.8104 37.0099 96.3052 35.4605 95.4117 34.1314C94.5182 32.8023 93.2713 31.7456 91.8097 31.0789C90.3482 30.4121 88.7292 30.1613 87.1329 30.3545C85.5365 30.5477 84.0253 31.1772 82.7674 32.1731V24.25H79.5151V47.4261H82.7674V38.9059C82.7674 37.4745 83.3394 36.1017 84.3577 35.0895C85.3759 34.0773 86.757 33.5086 88.197 33.5086C89.637 33.5086 91.0181 34.0773 92.0363 35.0895C93.0546 36.1017 93.6266 37.4745 93.6266 38.9059V47.4221H96.8789V38.6074H96.871Z" fill="black"/>
<path d="M136.368 38.6073C136.307 36.938 135.76 35.322 134.794 33.9551C133.828 32.5883 132.484 31.529 130.925 30.9056C129.366 30.2822 127.658 30.1213 126.009 30.4425C124.36 30.7636 122.84 31.553 121.632 32.7151C120.063 34.2286 119.132 36.2791 119.028 38.4502V47.4064H122.281V38.9059C122.281 37.4744 122.853 36.1016 123.871 35.0894C124.889 34.0773 126.27 33.5086 127.71 33.5086C129.15 33.5086 130.531 34.0773 131.55 35.0894C132.568 36.1016 133.14 37.4744 133.14 38.9059V47.4221H136.392V38.6073H136.368Z" fill="black"/>
<path d="M170.898 40.5243C170.974 40.5238 171.05 40.5383 171.12 40.5669C171.19 40.5954 171.255 40.6376 171.308 40.6909C171.362 40.7442 171.405 40.8076 171.435 40.8775C171.464 40.9473 171.479 41.0222 171.479 41.0978C171.478 41.169 171.465 41.2394 171.439 41.306C170.991 42.2057 170.299 42.963 169.441 43.4926C168.583 44.0221 167.593 44.3029 166.583 44.3032C165.792 44.3056 165.01 44.1343 164.294 43.8016C163.577 43.4688 162.943 42.9829 162.437 42.3784H158.648C159.358 43.9818 160.543 45.332 162.045 46.249C163.546 47.166 165.294 47.6063 167.054 47.5111C168.813 47.416 170.502 46.7899 171.895 45.7164C173.288 44.6429 174.319 43.173 174.85 41.5024C174.948 41.1883 174.999 40.8612 175 40.5322C175 39.6744 174.657 38.8517 174.048 38.2448C173.438 37.6379 172.611 37.2964 171.748 37.2954H162.264C162.188 37.2954 162.113 37.2806 162.043 37.2517C161.973 37.2229 161.909 37.1807 161.856 37.1274C161.802 37.0742 161.76 37.0109 161.731 36.9414C161.702 36.8718 161.687 36.7972 161.687 36.7219C161.685 36.6505 161.699 36.5797 161.726 36.5137C162.174 35.6134 162.866 34.8556 163.724 34.326C164.582 33.7963 165.573 33.5159 166.583 33.5165C167.373 33.5142 168.154 33.6855 168.87 34.0182C169.586 34.351 170.219 34.8369 170.724 35.4413H174.514C173.804 33.8379 172.619 32.4877 171.117 31.5707C169.615 30.6537 167.868 30.2135 166.108 30.3086C164.348 30.4038 162.659 31.0298 161.266 32.1033C159.874 33.1768 158.843 34.6468 158.312 36.3173C158.159 36.802 158.122 37.3158 158.206 37.8171C158.29 38.3183 158.491 38.793 158.793 39.2026C159.096 39.6122 159.491 39.9453 159.947 40.175C160.403 40.4046 160.907 40.5243 161.418 40.5243H170.898Z" fill="black"/>
<path d="M48.198 30.2758C46.6297 30.2709 45.0892 30.6879 43.7398 31.4824C42.3904 32.277 41.2824 33.4197 40.5332 34.7893C39.784 36.1589 39.4214 37.7045 39.484 39.2623C39.5465 40.82 40.0318 42.332 40.8884 43.6379C41.7451 44.9438 42.9412 45.9951 44.3499 46.6802C45.7587 47.3654 47.3277 47.659 48.8907 47.5299C50.4536 47.4008 51.9524 46.8538 53.2281 45.9469C54.5038 45.04 55.5089 43.807 56.137 42.3784H52.3473C51.7215 43.1186 50.907 43.6779 49.9892 43.9978C49.0714 44.3178 48.0839 44.3866 47.1301 44.197C46.1764 44.0075 45.2914 43.5666 44.5678 42.9205C43.8443 42.2743 43.3088 41.4468 43.0173 40.5243H55.2676C55.6994 40.5243 56.1135 40.3538 56.4188 40.0503C56.7241 39.7468 56.8957 39.3352 56.8957 38.9059C56.8925 36.6153 55.9747 34.4196 54.3438 32.8014C52.7129 31.1832 50.5024 30.2748 48.198 30.2758ZM43.0173 37.2875C43.3634 36.1911 44.0525 35.233 44.9843 34.5528C45.9161 33.8726 47.042 33.5058 48.198 33.5058C49.3541 33.5058 50.4799 33.8726 51.4117 34.5528C52.3435 35.233 53.0326 36.1911 53.3787 37.2875H43.0173Z" fill="black"/>
<path d="M8.036 10.316C6.216 9.672 4.97 8.076 4.97 6.354V5.108H3.822V6.382C3.822 8.286 2.59 9.966 0.7 10.652L1.302 11.562C2.786 10.988 3.906 9.84 4.424 8.37C4.984 9.672 6.048 10.694 7.42 11.212L8.036 10.316ZM3.724 13.312H9.352V15.944H3.724V13.312ZM2.604 16.868H10.486V12.402H2.604V16.868ZM12.348 7.614H10.486V4.492H9.338V11.828H10.486V8.566H12.348V7.614ZM22.8049 11.912H23.9669V4.492H22.8049V7.152H20.0749V8.09H22.8049V11.912ZM20.9849 10.428C19.1509 9.784 17.9329 8.23 17.9329 6.438V5.192H16.7849V6.48C16.7849 8.398 15.5389 10.078 13.6069 10.764L14.2089 11.702C15.7209 11.128 16.8549 9.994 17.3869 8.51C17.9329 9.812 18.9969 10.806 20.3689 11.324L20.9849 10.428ZM19.8229 16.112C17.9329 16.112 16.7849 15.566 16.7849 14.656C16.7849 13.732 17.9329 13.186 19.8229 13.186C21.7129 13.186 22.8609 13.732 22.8609 14.656C22.8609 15.566 21.7129 16.112 19.8229 16.112ZM19.8229 12.29C17.2469 12.29 15.6369 13.144 15.6369 14.656C15.6369 16.154 17.2469 17.022 19.8229 17.022C22.3989 17.022 24.0089 16.154 24.0089 14.656C24.0089 13.144 22.3989 12.29 19.8229 12.29ZM30.0138 16.182C32.1558 16.182 33.4998 14.894 33.4998 13.27C33.4998 11.744 32.5758 11.044 31.3858 10.526L29.9158 9.896C29.1178 9.56 28.2218 9.182 28.2218 8.188C28.2218 7.264 28.9778 6.676 30.1398 6.676C31.0918 6.676 31.8478 7.054 32.4778 7.642L33.1638 6.816C32.4358 6.06 31.3578 5.542 30.1398 5.542C28.2778 5.542 26.9058 6.69 26.9058 8.272C26.9058 9.77 28.0398 10.498 28.9918 10.904L30.4758 11.548C31.4418 11.982 32.1838 12.318 32.1838 13.368C32.1838 14.376 31.3718 15.048 30.0278 15.048C28.9638 15.048 27.9278 14.544 27.1998 13.774L26.4158 14.656C27.3118 15.594 28.5578 16.182 30.0138 16.182ZM35.5113 16H38.1433C41.2373 16 42.9313 14.082 42.9313 10.834C42.9313 7.572 41.2373 5.724 38.0873 5.724H35.5113V16ZM36.8133 14.936V6.788H37.9753C40.3973 6.788 41.5873 8.23 41.5873 10.834C41.5873 13.424 40.3973 14.936 37.9753 14.936H36.8133ZM47.9787 16.182C50.1207 16.182 51.4647 14.894 51.4647 13.27C51.4647 11.744 50.5407 11.044 49.3507 10.526L47.8807 9.896C47.0827 9.56 46.1867 9.182 46.1867 8.188C46.1867 7.264 46.9427 6.676 48.1047 6.676C49.0567 6.676 49.8127 7.054 50.4427 7.642L51.1287 6.816C50.4007 6.06 49.3227 5.542 48.1047 5.542C46.2427 5.542 44.8707 6.69 44.8707 8.272C44.8707 9.77 46.0047 10.498 46.9567 10.904L48.4407 11.548C49.4067 11.982 50.1487 12.318 50.1487 13.368C50.1487 14.376 49.3367 15.048 47.9927 15.048C46.9287 15.048 45.8927 14.544 45.1647 13.774L44.3807 14.656C45.2767 15.594 46.5227 16.182 47.9787 16.182ZM60.177 6.718H62.963V5.766H56.173V6.718H59.043V8.314C59.043 10.442 57.531 12.822 55.739 13.718L56.411 14.628C57.825 13.9 59.043 12.304 59.617 10.47C60.191 12.15 61.367 13.62 62.767 14.32L63.425 13.396C61.605 12.542 60.177 10.316 60.177 8.314V6.718ZM67.681 9.546H65.609V4.492H64.461V17.036H65.609V10.512H67.681V9.546ZM76.7939 6.018H73.5599V4.478H72.4119V6.018H69.1639V6.942H76.7939V6.018ZM71.0539 9.98C71.0539 9.098 71.8379 8.538 72.9859 8.538C74.1199 8.538 74.9039 9.098 74.9039 9.98C74.9039 10.848 74.1199 11.408 72.9859 11.408C71.8379 11.408 71.0539 10.848 71.0539 9.98ZM73.5599 12.276C75.0439 12.094 75.9959 11.226 75.9959 9.98C75.9959 8.566 74.7779 7.656 72.9859 7.656C71.1939 7.656 69.9619 8.566 69.9619 9.98C69.9619 11.24 70.9279 12.108 72.4119 12.29V13.634C71.1659 13.676 69.9619 13.69 68.8979 13.69L69.0659 14.656C71.3759 14.656 74.3999 14.614 77.1999 14.152L77.1159 13.298C75.9679 13.452 74.7499 13.536 73.5599 13.592V12.276ZM77.9139 4.478V17.036H79.0619V4.478H77.9139ZM85.9208 5.57H84.7868V7.824C84.7868 10.106 83.3588 12.514 81.5528 13.438L82.2388 14.362C83.6528 13.606 84.8148 12.038 85.3608 10.204C85.9348 11.926 87.0688 13.396 88.3988 14.11L89.1128 13.2C87.3488 12.318 85.9208 10.036 85.9208 7.824V5.57ZM93.4388 9.574H91.3668V4.492H90.2188V17.036H91.3668V10.526H93.4388V9.574ZM103.77 9.938H101.642V10.876H103.77V12.584H104.932V4.478H103.77V7.502H101.656V8.426H103.77V9.938ZM101.642 5.864H98.7578V4.366H97.6098V5.864H94.6138V6.788H101.642V5.864ZM96.4058 9.756C96.4058 8.888 97.1198 8.314 98.1698 8.314C99.2198 8.314 99.9338 8.888 99.9338 9.756C99.9338 10.638 99.2198 11.212 98.1698 11.212C97.1198 11.212 96.4058 10.638 96.4058 9.756ZM101.012 9.756C101.012 8.356 99.8358 7.432 98.1698 7.432C96.4898 7.432 95.3278 8.356 95.3278 9.756C95.3278 11.17 96.4898 12.094 98.1698 12.094C99.8358 12.094 101.012 11.17 101.012 9.756ZM100.816 16.14C98.9678 16.14 97.8198 15.678 97.8198 14.88C97.8198 14.068 98.9678 13.62 100.816 13.62C102.664 13.62 103.798 14.068 103.798 14.88C103.798 15.678 102.664 16.14 100.816 16.14ZM100.816 12.738C98.2118 12.738 96.6298 13.508 96.6298 14.88C96.6298 16.238 98.2118 17.022 100.816 17.022C103.406 17.022 104.988 16.238 104.988 14.88C104.988 13.508 103.406 12.738 100.816 12.738ZM114.894 11.59H117.624V14.572H114.894V11.59ZM114.698 6.564H117.82V10.666H114.698V6.564ZM118.772 14.572V11.59H120.9V10.666H118.968V6.564H120.914V5.64H111.604V6.564H113.55V10.666H111.632V11.59H113.746V14.572H110.582V15.51H121.978V14.572H118.772ZM124.594 10.036C126.624 9.728 128.472 8.72 129.158 7.264C129.83 8.72 131.678 9.728 133.722 10.036L134.142 9.112C131.93 8.818 129.9 7.572 129.9 6.046V6.032H133.806V5.108H124.51V6.032H128.416V6.046C128.416 7.572 126.386 8.818 124.16 9.112L124.594 10.036ZM126.05 13.2H124.902V16.756H133.582V15.818H126.05V13.2ZM123.446 10.946V11.87H128.668V14.418H129.816V11.87H134.842V10.946H123.446ZM140.567 5.57H139.433V7.824C139.433 10.106 138.005 12.514 136.199 13.438L136.885 14.362C138.299 13.606 139.461 12.038 140.007 10.204C140.581 11.926 141.715 13.396 143.045 14.11L143.759 13.2C141.995 12.318 140.567 10.036 140.567 7.824V5.57ZM148.085 9.574H146.013V4.492H144.865V17.036H146.013V10.526H148.085V9.574ZM158.43 15.944H152.676V14.32H158.43V15.944ZM158.43 13.424H152.676V11.828H151.542V16.868H159.578V11.828H158.43V13.424ZM152.662 9.924C151.416 9.924 150.52 9.112 150.52 7.964C150.52 6.816 151.416 6.018 152.662 6.018C153.908 6.018 154.804 6.816 154.804 7.964C154.804 9.112 153.908 9.924 152.662 9.924ZM158.416 4.492V7.474H155.854C155.616 6.018 154.356 5.066 152.662 5.066C150.786 5.066 149.428 6.242 149.428 7.964C149.428 9.7 150.786 10.876 152.662 10.876C154.384 10.876 155.644 9.896 155.868 8.412H158.416V11.226H159.578V4.492H158.416ZM169.391 10.554C167.543 9.938 166.353 8.468 166.353 6.83V6.34H169.125V5.416H162.391V6.34H165.205V6.83C165.205 8.636 163.945 10.26 162.055 10.918L162.643 11.828C164.141 11.296 165.275 10.176 165.807 8.748C166.339 9.994 167.417 10.988 168.845 11.45L169.391 10.554ZM167.865 16.112C165.989 16.112 164.869 15.594 164.869 14.698C164.869 13.816 165.989 13.298 167.865 13.298C169.713 13.298 170.847 13.816 170.847 14.698C170.847 15.594 169.713 16.112 167.865 16.112ZM167.865 12.388C165.289 12.388 163.721 13.242 163.721 14.698C163.721 16.168 165.289 17.022 167.865 17.022C170.413 17.022 171.995 16.168 171.995 14.698C171.995 13.242 170.413 12.388 167.865 12.388ZM171.855 7.656V4.492H170.707V12.066H171.855V8.622H173.717V7.656H171.855Z" fill="black"/>
</svg>
